<svg xmlns="http://www.w3.org/2000/svg" viewBox="0 0 100 100" preserveAspectRatio="xMidYMid slice" width="100%" height="100%">
  <rect width="100" height="100" fill="#050505"/>
  <path d="M -5 18 C 15 8,  38 32, 58 22 S 85  4, 106 18"  fill="none" stroke="rgba(255,255,255,0.26)" stroke-width="1.4" stroke-linecap="round"/>
  <path d="M -5 48 C 18 36, 42 58, 62 46 S 88 28, 106 44"  fill="none" stroke="rgba(255,255,255,0.18)" stroke-width="1.0" stroke-linecap="round"/>
  <path d="M -5 72 C 22 62, 46 80, 68 70 S 88 54, 106 68"  fill="none" stroke="rgba(255,255,255,0.22)" stroke-width="1.6" stroke-linecap="round"/>
  <path d="M  8 -5 C 18 18, 12 44, 24 64 S 28 86, 18 106"  fill="none" stroke="rgba(255,255,255,0.20)" stroke-width="1.2" stroke-linecap="round"/>
  <path d="M 38 -5 C 50 14, 44 40, 54 60 S 50 82, 44 106"  fill="none" stroke="rgba(255,255,255,0.16)" stroke-width="0.8" stroke-linecap="round"/>
  <path d="M 68 -5 C 62 18, 78 44, 68 64 S 72 84, 78 106"  fill="none" stroke="rgba(255,255,255,0.24)" stroke-width="1.5" stroke-linecap="round"/>
  <path d="M -5 32 C 28 22, 52 48, 76 36 S 96 14, 106 32"  fill="none" stroke="rgba(255,255,255,0.15)" stroke-width="0.7" stroke-linecap="round"/>
  <path d="M -5 86 C 22 76, 50 92, 72 82 S 92 70, 106 82"  fill="none" stroke="rgba(255,255,255,0.20)" stroke-width="1.1" stroke-linecap="round"/>
  <path d="M 20 -5 C 30 22, 18 50, 32 72 S 36 90, 24 106"  fill="none" stroke="rgba(255,255,255,0.17)" stroke-width="0.9" stroke-linecap="round"/>
  <path d="M 55 -5 C 70 20, 58 48, 72 68 S 68 88, 60 106"  fill="none" stroke="rgba(255,255,255,0.19)" stroke-width="1.0" stroke-linecap="round"/>
  <path d="M -5 60 C 30 48, 55 70, 80 58 S 100 40, 106 56" fill="none" stroke="rgba(255,255,255,0.15)" stroke-width="0.8" stroke-linecap="round"/>
  <path d="M 85 -5 C 78 24, 92 50, 82 72 S 88 90, 94 106"  fill="none" stroke="rgba(255,255,255,0.21)" stroke-width="1.3" stroke-linecap="round"/>
</svg>
